HIERARCHY
ROOT trot
{
	OFFSET 0.000000 0.000000 0.000000 
	CHANNELS 6 Xposition Yposition Zposition Xrotation Yrotation Zrotation
	JOINT Spine_01
	{
		OFFSET -0.000000 133.018967 -44.918495 
		CHANNELS 3 Xrotation Yrotation Zrotation
		JOINT Spine_02
		{
			OFFSET -1.963336 -5.417946 27.916510 
			CHANNELS 3 Xrotation Yrotation Zrotation
			JOINT Spine_03
			{
				OFFSET -0.348883 -2.764824 35.765018 
				CHANNELS 3 Xrotation Yrotation Zrotation
				JOINT Spine_04
				{
					OFFSET 2.312364 2.880417 39.095474 
					CHANNELS 3 Xrotation Yrotation Zrotation
					JOINT Neck_Base
					{
						OFFSET 2.675411 3.734146 29.297302 
						CHANNELS 3 Xrotation Yrotation Zrotation
						JOINT Neck_01
						{
							OFFSET -0.250758 18.287338 8.658661 
							CHANNELS 3 Xrotation Yrotation Zrotation
							JOINT Neck_02
							{
								OFFSET -0.246469 15.901901 14.686096 
								CHANNELS 3 Xrotation Yrotation Zrotation
								JOINT Head
								{
									OFFSET -0.610976 15.699570 15.351357 
									CHANNELS 3 Xrotation Yrotation Zrotation
									JOINT L_Ear
									{
										OFFSET 7.497761 16.400482 9.877068 
										CHANNELS 3 Xrotation Yrotation Zrotation
										End Site
										{
											OFFSET 5.249084 7.608658 -14.122223 
										}
									}
									JOINT R_Ear
									{
										OFFSET -8.345821 15.985779 9.876915 
										CHANNELS 3 Xrotation Yrotation Zrotation
										End Site
										{
											OFFSET 5.253622 -6.469818 14.677277 
										}
									}
									JOINT Jaw
									{
										OFFSET 0.120467 -4.600449 8.326424 
										CHANNELS 3 Xrotation Yrotation Zrotation
										End Site
										{
											OFFSET -0.440576 16.825027 -1.267303 
										}
									}
								}
							}
						}
					}
					JOINT R_Scapula
					{
						OFFSET -6.886612 17.204956 8.295563 
						CHANNELS 3 Xrotation Yrotation Zrotation
						JOINT R_Shoulder
						{
							OFFSET 0.944667 -30.411758 28.920792 
							CHANNELS 3 Xrotation Yrotation Zrotation
							JOINT R_Front_UpperLeg
							{
								OFFSET -3.053791 -31.671829 -9.811905 
								CHANNELS 3 Xrotation Yrotation Zrotation
								JOINT R_Front_LowerLeg
								{
									OFFSET 0.760651 -30.764484 25.322250 
									CHANNELS 3 Xrotation Yrotation Zrotation
									JOINT R_Front_Ankle
									{
										OFFSET 0.574218 -28.266016 11.811890 
										CHANNELS 3 Xrotation Yrotation Zrotation
										JOINT R_Front_Hoof
										{
											OFFSET 0.000001 -9.870561 1.909836 
											CHANNELS 3 Xrotation Yrotation Zrotation
											End Site
											{
												OFFSET -0.000001 2.287526 -9.789925 
											}
										}
									}
								}
							}
						}
					}
					JOINT L_Scapula
					{
						OFFSET 6.543331 17.908585 6.979477 
						CHANNELS 3 Xrotation Yrotation Zrotation
						JOINT L_Shoulder
						{
							OFFSET 7.508667 -37.600906 17.086464 
							CHANNELS 3 Xrotation Yrotation Zrotation
							JOINT L_Front_UpperLeg
							{
								OFFSET 0.875155 -21.187859 -25.671043 
								CHANNELS 3 Xrotation Yrotation Zrotation
								JOINT L_Front_LowerLeg
								{
									OFFSET -4.643334 -38.550724 -8.972542 
									CHANNELS 3 Xrotation Yrotation Zrotation
									JOINT L_Front_Ankle
									{
										OFFSET -2.672742 -25.726305 -16.426241 
										CHANNELS 3 Xrotation Yrotation Zrotation
										JOINT L_Front_Hoof
										{
											OFFSET 0.004585 -8.649823 -5.123941 
											CHANNELS 3 Xrotation Yrotation Zrotation
											End Site
											{
												OFFSET 0.011460 -8.209476 5.803320 
											}
										}
									}
								}
							}
						}
					}
				}
			}
		}
		JOINT L_Hip
		{
			OFFSET 15.362549 -6.915215 -12.029934 
			CHANNELS 3 Xrotation Yrotation Zrotation
			JOINT L_Back_UpperLeg
			{
				OFFSET -1.672355 -31.577599 16.126976 
				CHANNELS 3 Xrotation Yrotation Zrotation
				JOINT L_Back_LowerLeg
				{
					OFFSET -3.855629 -44.689884 2.323212 
					CHANNELS 3 Xrotation Yrotation Zrotation
					JOINT L_Back_Ankle
					{
						OFFSET 2.466084 -26.714212 24.284054 
						CHANNELS 3 Xrotation Yrotation Zrotation
						JOINT L_Back_Hoof
						{
							OFFSET 0.635726 -11.227886 3.136133 
							CHANNELS 3 Xrotation Yrotation Zrotation
							End Site
							{
								OFFSET 1.066628 -1.294503 11.553846 
							}
						}
					}
				}
			}
		}
		JOINT R_Hip
		{
			OFFSET -14.361279 -6.136742 -13.588184 
			CHANNELS 3 Xrotation Yrotation Zrotation
			JOINT R_Back_UpperLeg
			{
				OFFSET -0.228327 -33.304344 -12.279972 
				CHANNELS 3 Xrotation Yrotation Zrotation
				JOINT R_Back_LowerLeg
				{
					OFFSET 1.874175 -31.017994 -32.431694 
					CHANNELS 3 Xrotation Yrotation Zrotation
					JOINT R_Back_Ankle
					{
						OFFSET -0.838160 -35.475014 -7.090286 
						CHANNELS 3 Xrotation Yrotation Zrotation
						JOINT R_Back_Hoof
						{
							OFFSET 0.183949 -11.579794 -1.475945 
							CHANNELS 3 Xrotation Yrotation Zrotation
							End Site
							{
								OFFSET 0.602100 10.611435 -4.831032 
							}
						}
					}
				}
			}
		}
		JOINT Tail_01
		{
			OFFSET 1.498355 11.668015 -22.752594 
			CHANNELS 3 Xrotation Yrotation Zrotation
			JOINT Tail_02
			{
				OFFSET 0.984761 -18.128342 -12.585327 
				CHANNELS 3 Xrotation Yrotation Zrotation
				JOINT Tail_03
				{
					OFFSET 1.631411 -22.351173 -6.556175 
					CHANNELS 3 Xrotation Yrotation Zrotation
					JOINT Tail_04
					{
						OFFSET 2.014043 -22.313156 -6.122116 
						CHANNELS 3 Xrotation Yrotation Zrotation
						JOINT Tail_05
						{
							OFFSET 2.460956 -21.660637 -8.412987 
							CHANNELS 3 Xrotation Yrotation Zrotation
							End Site
							{
								OFFSET 2.069515 8.630600 -21.615913 
							}
						}
					}
				}
			}
		}
	}
}
MOTION
Frames: 7
Frame Time: 0.033333
0.000000 0.000000 0.000000 0.000006 0.000000 -0.000000 0.000007 0.000003 0.000019 -0.000033 -0.000001 -0.000006 0.000006 0.000003 0.000045 -0.000004 -0.000001 0.000006 0.000028 -0.000002 -0.000055 -0.000036 -0.000001 -0.000004 0.000057 0.000002 0.000002 -0.000026 0.000036 0.000008 0.000009 -0.000053 -0.000029 0.000001 -0.000024 0.000003 -0.000033 -0.000035 -0.000013 -0.000026 0.000003 -0.000053 0.000044 -0.000001 -0.000003 -0.000047 0.000003 -0.000001 0.000022 -0.000076 0.000056 0.000033 0.000000 -0.000001 -0.000003 -0.000006 0.000009 -0.000009 0.000000 -0.000051 0.000043 -0.000002 -0.000003 -0.000014 0.000001 0.000005 0.000013 0.000025 0.000009 -0.000013 0.000005 -0.000005 -0.000002 -0.000003 -0.000002 -0.000015 -0.000001 -0.000005 0.000009 -0.000003 0.000002 0.000003 0.000002 -0.000004 0.000011 -0.000006 0.000003 -0.000017 0.000005 0.000001 -0.000040 -0.000001 -0.000007 0.000015 -0.000003 -0.000000 -0.000031 0.000003 -0.000006 0.000022 -0.000001 0.000005 -0.000007 -0.000014 -0.000015 -0.000051 -0.000002 -0.000012 -0.000000 0.000000 -0.000006 0.000024 0.000002 0.000002 -0.000009 0.000002 -0.000003 -0.000003 0.000053 0.000029 
0.000000 0.000000 0.000000 0.000006 0.000000 -0.000000 -0.353860 0.126609 0.109598 -0.413489 -0.455093 -0.209635 0.356702 -0.100586 -0.154625 0.632256 0.286304 -0.022595 -0.720606 0.212084 -0.009605 -0.528641 0.128189 0.109382 -0.302158 -0.018942 0.072863 0.605853 -0.198370 0.039801 1.744088 -0.811012 0.221294 1.063280 0.564836 -0.136061 -0.000033 -0.000035 -0.000013 0.652888 -0.005864 -0.156943 -6.114057 0.364170 0.638061 12.342315 0.035120 0.061265 -9.731737 -0.161757 0.092452 -6.666343 -0.084813 -0.358305 -0.000001 -0.000006 0.000009 -2.354677 -0.322412 0.114047 1.743797 0.270254 -0.169870 -7.604082 -0.405027 -0.156886 16.054991 -1.965699 0.935973 18.626783 2.518128 -0.990852 7.048823 0.006158 -0.005040 2.006961 -0.050702 0.106108 -1.873844 1.829756 -1.528657 3.269783 -0.336986 -0.672320 -4.709133 -0.196410 0.832890 -3.103557 -0.106202 0.272658 -0.647633 0.017149 -0.033861 3.461871 0.671833 -0.343692 1.202869 -0.051051 0.120075 5.306199 0.230267 0.777164 1.360168 0.001991 0.169475 1.746425 3.586745 -1.621178 -1.940871 -0.806120 1.360730 -0.895551 -0.404784 1.132988 -0.627551 -0.487234 1.256401 -0.000003 0.000053 0.000029 
0.000000 0.000000 0.000000 0.000006 0.000000 -0.000000 -1.240665 0.467610 0.406250 -0.218368 -1.041719 -0.626980 1.063302 -0.457195 -0.725853 1.177041 0.491362 -0.057295 -1.570704 0.226717 0.093101 -1.340485 0.398577 0.365859 -0.800733 0.204685 0.345020 1.613204 -0.344016 -0.027252 2.612677 -1.211682 0.340528 3.251490 1.716271 -0.448258 -0.000032 -0.000035 -0.000013 1.177005 -0.022451 -0.258350 -9.588758 0.540063 1.016642 22.414072 1.003871 0.967477 -16.772099 -0.287296 0.141551 -11.207831 -0.294611 -1.139865 -0.000003 -0.000083 0.000023 -4.483916 -0.652464 0.277974 2.914560 0.448677 -0.288455 -14.022155 0.242128 1.047742 32.348778 -3.611465 2.400493 9.068379 4.155561 -1.533717 8.833591 0.002292 -0.002587 4.597420 -0.110591 0.245574 6.680697 -0.036012 -3.639883 -8.280156 0.675954 1.775008 -9.716598 0.251166 0.089105 1.400275 0.043054 -0.124805 -2.670639 0.073171 -0.138339 9.922063 1.557377 0.428340 -10.143463 0.528069 -0.964282 17.425842 0.731415 0.112196 2.263434 0.005549 0.281993 6.087501 6.952780 -3.302892 -6.786133 -1.523795 1.937138 -3.039606 -0.861738 1.951866 -2.035410 -1.018004 2.305968 -0.000003 0.000053 0.000029 
0.000000 0.000000 0.000000 0.000006 0.000000 -0.000000 -2.399477 0.963205 0.844093 0.811530 -1.715017 -1.131958 1.877572 -1.017944 -1.612126 1.232838 0.587524 -0.084363 -2.360639 0.091881 0.267823 -2.196791 0.779347 0.709862 -1.371885 0.647453 0.776179 2.804178 -0.483767 -0.173643 2.847994 -1.319835 0.373852 4.959287 2.603297 -0.721605 -0.000031 -0.000035 -0.000013 -4.610898 0.343414 0.357265 7.205669 -0.513798 -0.697532 17.029758 3.920164 2.872008 -16.772099 -0.287296 0.141551 -24.951794 -0.335869 -2.102020 7.241309 0.000025 -0.000003 -6.456795 -0.963979 0.421012 3.568614 0.547261 -0.356265 -23.624149 0.769730 3.449373 48.277927 -4.755998 4.218801 3.298828 4.990766 -2.166243 9.806062 0.008343 -0.007168 7.755875 -0.174985 0.419049 17.617205 -3.448142 -4.728310 -19.354258 1.166565 4.259700 -22.463951 1.279733 0.501321 12.143556 0.269814 -1.110248 -6.189371 0.179282 -0.315135 18.614969 2.715249 1.428334 -24.476215 1.545810 -2.137502 27.529667 1.501099 -1.597214 2.800053 0.008519 0.348841 11.802156 9.700007 -5.024245 -13.279754 -1.843367 1.480471 -5.967448 -1.272953 2.275220 -4.002290 -1.501685 2.937150 -0.000005 0.000054 0.000029 
0.000000 0.000000 0.000000 0.000006 0.000000 -0.000000 -3.568550 1.560781 1.371024 1.988222 -2.429734 -1.640418 2.696102 -1.735783 -2.653367 1.180560 0.560014 -0.117132 -2.706940 -0.108234 0.457822 -2.692479 1.163018 1.024998 -1.767091 1.244211 1.305193 3.465420 -0.536977 -0.323588 1.815111 -0.843861 0.230811 5.810591 3.041266 -0.867437 -0.000031 -0.000035 -0.000013 -5.445457 0.376301 0.475940 15.890036 -1.243715 -1.445057 14.664274 7.169285 4.270735 -16.772100 -0.287296 0.141552 -47.387653 0.398068 -3.275657 23.172071 0.000022 -0.000013 -8.323363 -1.258258 0.539854 3.739254 0.572851 -0.374142 -34.555241 0.396279 6.696075 59.326653 -5.233985 5.630926 4.041999 4.388876 -2.962115 10.327566 0.008790 -0.007553 11.543910 -0.239463 0.631376 24.705572 -6.211167 -4.870632 -22.227907 1.214659 4.915507 -42.202671 1.547432 2.862752 24.969076 0.294529 -2.316167 -11.323879 0.353127 -0.560682 27.481777 3.917603 2.082448 -38.215256 2.766279 -2.993289 35.586971 2.648834 -3.256773 3.060296 0.010180 0.381237 17.540346 11.611024 -6.581567 -19.701876 -1.459310 0.087680 -9.084947 -1.507344 2.003795 -6.131634 -1.810006 2.991945 -0.000003 0.000054 0.000030 
0.000000 0.000000 0.000000 0.000006 0.000000 -0.000000 -4.482627 2.221680 1.922060 2.761612 -3.139667 -2.089781 3.388893 -2.558362 -3.702560 1.297406 0.425878 -0.163993 -2.571952 -0.242576 0.615554 -2.782067 1.500812 1.233475 -1.906841 1.894093 1.822474 3.482633 -0.487457 -0.429135 -0.642975 0.300936 -0.075481 6.041325 3.159471 -0.908049 -0.000031 -0.000035 -0.000013 -2.548200 0.191006 0.195883 17.492584 -1.390438 -1.570567 15.172857 10.568657 4.936013 -16.772102 -0.287296 0.141551 -69.238617 1.835169 -4.308257 39.102802 0.000017 -0.000023 -10.111908 -1.576990 0.695041 3.438402 0.527699 -0.342679 -44.923420 -0.941057 9.704376 63.028988 -5.332339 6.121219 12.060051 2.543470 -3.548715 10.469456 0.008913 -0.007657 15.950476 -0.296620 0.883069 27.635092 -8.343294 -4.422298 -19.556000 1.171013 4.305658 -62.025570 0.621910 5.645939 35.713184 0.108327 -3.310075 -18.193983 0.618787 -0.863078 35.863678 4.757636 2.146634 -49.780907 3.927322 -3.471874 40.861961 3.999598 -3.953325 3.134424 0.010677 0.390455 22.030621 12.690057 -7.709662 -24.383497 -0.453004 -1.709373 -11.568789 -1.497324 1.311783 -7.768870 -1.890423 2.641493 -0.000003 0.000054 0.000029 
0.000000 0.000000 0.000000 0.000006 0.000000 -0.000000 -4.871136 2.922389 2.416156 2.992652 -3.809919 -2.417226 3.770238 -3.428124 -4.625156 1.513593 0.207217 -0.216096 -2.246668 -0.225145 0.719157 -2.612646 1.799808 1.307357 -1.830677 2.511470 2.221185 3.251150 -0.397571 -0.485299 -3.569913 1.682920 -0.376495 5.028886 2.639216 -0.733290 -0.000031 -0.000035 -0.000013 1.186874 -0.065014 -0.153236 17.459482 -1.387372 -1.568017 16.063061 13.773308 4.928109 -16.772100 -0.287296 0.141552 -81.694534 3.091818 -5.081123 46.344055 0.000014 -0.000027 -11.846337 -1.933948 0.893896 2.654048 0.409191 -0.261758 -51.822712 -2.302623 11.879065 58.007622 -5.191339 5.457904 26.227781 0.122159 -3.439955 10.190849 0.008688 -0.007437 20.964504 -0.337915 1.173795 27.442041 -10.070415 -3.702886 -15.298867 1.042867 3.339791 -75.163239 -0.370248 7.555701 40.217495 -0.024522 -3.713314 -26.919458 1.005103 -1.197765 43.073235 4.821933 1.701672 -57.347729 4.728642 -3.654466 42.317535 4.923853 -3.270989 3.112702 0.010527 0.387750 24.127018 13.135314 -8.243926 -26.152918 0.653628 -3.229381 -12.581832 -1.313155 0.609519 -8.404719 -1.824342 2.277727 -0.000003 0.000054 0.000030 
